 <svg class="background__svg background__svg--line" width="351" height="1152" viewBox="0 0 351 1152" fill="none" xmlns="http://www.w3.org/2000/svg">
                <path d="M0 0H10V254.306C10 262.548 11.0191 270.759 13.034 278.751L17.5472 296.653C23.328 319.584 37.0478 339.723 56.2706 353.496L89 376.947L287.232 480.303C320.277 497.532 341 531.707 341 568.974V654.714C341 684.212 327.976 712.206 305.412 731.206L70.0261 929.419C66.0149 932.796 62.2756 936.484 58.8428 940.448L40.5488 961.574C31.2884 972.268 24.4022 984.805 20.3451 998.357L14.2009 1018.88C11.4152 1028.19 10 1037.85 10 1047.56V1152H0Z"
                        fill="#222" stroke="#222" />
                <g>
                        <path d="M10 0V254.306C10 262.548 11.0191 270.759 13.034 278.751L17.5472 296.653C23.328 319.584 37.0478 339.723 56.2706 353.496L89 376.947L287.232 480.303C320.277 497.532 341 531.707 341 568.974V654.714C341 684.212 327.976 712.206 305.412 731.206L70.0261 929.419C66.0149 932.796 62.2756 936.484 58.8428 940.448L40.5488 961.574C31.2884 972.268 24.4022 984.805 20.3451 998.357L14.2009 1018.88C11.4152 1028.19 10 1037.85 10 1047.56V1152"
                                stroke="#FFFF00" stroke-width="20" stroke-dasharray="180%">
                                <animate id="p1" begin="0.1s; p3.end+8s" attributeName="stroke-dashoffset" values="180%; 118%" dur="1.5s" />
                                <animate id="p2" begin="p1.end" attributeName="stroke-dashoffset" values="118%; 50%" dur="0.1s" />
                                <animate id="p3" begin="p2.end" attributeName="stroke-dashoffset" values="50%; 0%" dur="1.5s" />

                        </path>
                </g>
                </svg>