<svg width="76" height="79" viewBox="0 0 99 103" fill="none" xmlns="http://www.w3.org/2000/svg">
<defs>
    <linearGradient id="linear-gradient"  x1="0" y1="0" x2="-100%" y2="100%" >
      <stop offset="0%" stop-color="transparent" />
      <stop offset="30%" stop-color="transparent" />
      <stop offset="50%" stop-color="white" />
      <stop offset="70%" stop-color="transparent" />
      <stop offset="100%" stop-color="transparent" />
	  
      <animateTransform attributeName="gradientTransform" 
        type="translate"
        values="-14 0;34 0"       
	fill="freeze"
        dur="12s"
        repeatCount="indefinite"/>
    </linearGradient>
  </defs> 
        <g fill="url(#linear-gradient)">
                <path d="M78.932 2.04132H20.068C10.1033 2.04132 2.02533 9.84516 2.02533 19.4717V83.5283C2.02533 93.1548 10.1033 100.959 20.068 100.959H78.932C88.8967 100.959 96.9747 93.1548 96.9747 83.5283V19.4717C96.9747 9.84516 88.8967 2.04132 78.932 2.04132Z"/>
        </g>
<path d="M78.932 2.04132H20.068C10.1033 2.04132 2.02533 9.84516 2.02533 19.4717V83.5283C2.02533 93.1548 10.1033 100.959 20.068 100.959H78.932C88.8967 100.959 96.9747 93.1548 96.9747 83.5283V19.4717C96.9747 9.84516 88.8967 2.04132 78.932 2.04132Z" stroke="white" stroke-width="2.402"/>
<path d="M22.7006 30.8621L8.62919 43.903H1.29282L1.45298 67.8668H24.8958L30.9744 62.8772V70.3705C30.9744 72.0719 32.3929 73.4424 34.1542 73.4424H88.0767C89.838 73.4424 91.2539 72.0719 91.2539 70.3705V44.7401C91.2539 43.0386 89.838 41.6682 88.0767 41.6682H76.0902C76.0904 41.6388 76.0957 41.6192 76.0957 41.5922C76.0957 34.6593 71.1588 30.8621 67.9244 30.8621L22.7006 30.8621ZM23.8297 35.5448H67.286C69.2236 35.5448 70.731 37.813 70.731 40.6663L67.6405 40.5951H34.5113C34.5113 40.5951 30.6514 40.9956 30.6514 44.57C30.6514 48.1444 34.4325 47.7104 34.4325 47.7104L54.4487 47.6545C54.7254 50.4783 53.9668 52.1345 50.6361 52.9966L30.7932 57.1187L22.4696 62.2554H4.10238L3.99995 47.7179H11.3337L23.8297 35.5448ZM61.3255 49.3644H87.5358V56.0764H57.379C60.8746 55.1444 61.3255 51.6161 61.3255 49.3644V49.3644Z" fill="white"/>

</svg>


