<svg width="76" height="79" viewBox="0 0 99 102" fill="none" xmlns="http://www.w3.org/2000/svg">
<defs>
    <linearGradient id="linear-gradient"  x1="0" y1="0" x2="-100%" y2="100%" >
      <stop offset="0%" stop-color="transparent" />
      <stop offset="30%" stop-color="transparent" />
      <stop offset="50%" stop-color="white" />
      <stop offset="70%" stop-color="transparent" />
      <stop offset="100%" stop-color="transparent" />
	  
      <animateTransform attributeName="gradientTransform" 
        type="translate"
        values="-10 0;30 0"       
	fill="freeze"
        dur="12s"
        repeatCount="indefinite"/>
    </linearGradient>
  </defs> 
<g fill="url(#linear-gradient)">
<path d="M79.4351 1.89209H19.5649C9.42984 1.89209 1.21379 9.64058 1.21379 19.1988V82.8012C1.21379 92.3594 9.42984 100.108 19.5649 100.108H79.4351C89.5702 100.108 97.7862 92.3594 97.7862 82.8012V19.1988C97.7862 9.64058 89.5702 1.89209 79.4351 1.89209Z"/>
</g>
<path d="M79.4351 1.89209H19.5649C9.42984 1.89209 1.21379 9.64058 1.21379 19.1988V82.8012C1.21379 92.3594 9.42984 100.108 19.5649 100.108H79.4351C89.5702 100.108 97.7862 92.3594 97.7862 82.8012V19.1988C97.7862 9.64058 89.5702 1.89209 79.4351 1.89209Z" stroke="white" stroke-width="2.402"/>
<path d="M49.5 88.6422C71.4803 88.6422 89.2989 71.8377 89.2989 51.1082C89.2989 30.3787 71.4803 13.5742 49.5 13.5742C27.5197 13.5742 9.70116 30.3787 9.70116 51.1082C9.70116 71.8377 27.5197 88.6422 49.5 88.6422Z" stroke="white" stroke-width="2.402"/>
<path d="M50.3042 20.7086C50.3042 20.1594 49.8706 19.7143 49.3357 19.7143C48.8008 19.7143 48.3672 20.1594 48.3672 20.7086V31.2968C48.3672 31.8459 48.8008 32.2911 49.3357 32.2911C49.8706 32.2911 50.3042 31.8459 50.3042 31.2968V20.7086Z" stroke="white" stroke-width="1.6" stroke-linecap="round" stroke-linejoin="round"/>
<path d="M50.3042 76.0843C50.3042 75.5352 49.8706 75.09 49.3357 75.09C48.8008 75.09 48.3672 75.5352 48.3672 76.0843V81.4715C48.3672 82.0207 48.8008 82.4659 49.3357 82.4659C49.8706 82.4659 50.3042 82.0207 50.3042 81.4715V76.0843Z" stroke="white" stroke-width="1.6" stroke-linecap="round" stroke-linejoin="round"/>
<path d="M22.8333 52.0034C23.4156 52.0034 23.8876 51.5945 23.8876 51.09C23.8876 50.5856 23.4156 50.1766 22.8333 50.1766H17.121C16.5387 50.1766 16.0667 50.5856 16.0667 51.09C16.0667 51.5945 16.5387 52.0034 17.121 52.0034H22.8333Z" stroke="white" stroke-width="1.6" stroke-linecap="round" stroke-linejoin="round"/>
<path d="M75.8382 50.1767C75.2559 50.1767 74.7839 50.5856 74.7839 51.0901C74.7839 51.5945 75.2559 52.0034 75.8382 52.0034H81.5505C82.1327 52.0034 82.6048 51.5945 82.6048 51.0901C82.6048 50.5856 82.1327 50.1767 81.5505 50.1767H75.8382Z" stroke="white" stroke-width="1.6" stroke-linecap="round" stroke-linejoin="round"/>
<path d="M71.8033 37.8019C71.299 38.0765 71.107 38.6532 71.3745 39.0901C71.6419 39.5269 72.2675 39.6585 72.7718 39.3839L77.7188 36.6903C78.223 36.4158 78.415 35.839 78.1476 35.4022C77.8801 34.9653 77.2545 34.8337 76.7503 35.1083L71.8033 37.8019Z" stroke="white" stroke-width="1.6" stroke-linecap="round" stroke-linejoin="round"/>
<path d="M63.4257 72.279C63.1346 71.8034 62.523 71.6224 62.0598 71.8746C61.5965 72.1268 61.457 72.7168 61.7482 73.1924L64.6043 77.8578C64.8955 78.3334 65.507 78.5145 65.9702 78.2623C66.4335 78.01 66.573 77.42 66.2818 76.9445L63.4257 72.279Z" stroke="white" stroke-width="1.6" stroke-linecap="round" stroke-linejoin="round"/>
<path d="M35.2457 29.901C35.5369 30.3766 36.1484 30.5577 36.6116 30.3054C37.0749 30.0532 37.2144 29.4632 36.9232 28.9876L34.0671 24.3222C33.776 23.8466 33.1644 23.6655 32.7012 23.9178C32.238 24.17 32.0985 24.76 32.3896 25.2356L35.2457 29.901Z" stroke="white" stroke-width="1.6" stroke-linecap="round" stroke-linejoin="round"/>
<path d="M26.8682 64.3782C27.3725 64.1036 27.5645 63.5268 27.297 63.09C27.0296 62.6531 26.404 62.5215 25.8997 62.7961L20.9527 65.4897C20.4485 65.7643 20.2565 66.341 20.5239 66.7779C20.7914 67.2148 21.417 67.3463 21.9212 67.0718L26.8682 64.3782Z" stroke="white" stroke-width="1.6" stroke-linecap="round" stroke-linejoin="round"/>
<path d="M61.7482 28.9877C61.4571 29.4632 61.5966 30.0533 62.0599 30.3055C62.5231 30.5577 63.1346 30.3766 63.4258 29.9011L66.2819 25.2356C66.573 24.7601 66.4335 24.1701 65.9703 23.9178C65.5071 23.6656 64.8955 23.8467 64.6044 24.3222L61.7482 28.9877Z" stroke="white" stroke-width="1.6" stroke-linecap="round" stroke-linejoin="round"/>
<path d="M72.7718 62.7961C72.2675 62.5215 71.6419 62.6531 71.3745 63.09C71.107 63.5269 71.299 64.1036 71.8033 64.3782L76.7503 67.0718C77.2545 67.3463 77.8801 67.2148 78.1476 66.7779C78.415 66.341 78.223 65.7643 77.7188 65.4897L72.7718 62.7961Z" stroke="white" stroke-width="1.6" stroke-linecap="round" stroke-linejoin="round"/>
<path d="M25.8997 39.3839C26.4039 39.6584 27.0295 39.5269 27.297 39.09C27.5644 38.6531 27.3725 38.0764 26.8682 37.8018L21.9212 35.1082C21.4169 34.8337 20.7914 34.9652 20.5239 35.4021C20.2565 35.839 20.4484 36.4157 20.9527 36.6903L25.8997 39.3839Z" stroke="white" stroke-width="1.6" stroke-linecap="round" stroke-linejoin="round"/>
<path d="M36.9233 73.1923C37.2144 72.7168 37.0749 72.1268 36.6117 71.8745C36.1485 71.6223 35.5369 71.8034 35.2458 72.2789L32.3897 76.9444C32.0985 77.42 32.238 78.01 32.7013 78.2622C33.1645 78.5144 33.776 78.3334 34.0672 77.8578L36.9233 73.1923Z" stroke="white" stroke-width="1.6" stroke-linecap="round" stroke-linejoin="round"/>
<path d="M49.0317 57.2778V61H33.144V57.8579C33.5415 56.9878 34.0464 56.1392 34.6587 55.312C35.271 54.4741 36.0015 53.6362 36.8501 52.7983C37.7095 51.9497 38.687 51.0796 39.7827 50.188C40.5776 49.5435 41.2544 48.958 41.813 48.4316C42.3716 47.8945 42.8066 47.4165 43.1182 46.9976C43.4404 46.5786 43.6821 46.165 43.8433 45.7568C44.0044 45.3379 44.085 44.9297 44.085 44.5322C44.085 43.5439 43.8325 42.8027 43.3276 42.3086C42.8335 41.8145 42.0923 41.5674 41.104 41.5674C40.1372 41.5674 39.396 41.8306 38.8804 42.3569C38.3755 42.8726 38.0479 43.6514 37.8975 44.6934L33.3374 44.4355C33.5952 42.3301 34.3794 40.7241 35.6899 39.6177C37.0112 38.5112 38.8052 37.958 41.0718 37.958C43.521 37.958 45.4009 38.5166 46.7114 39.6338C48.022 40.751 48.6772 42.3193 48.6772 44.3389C48.6772 45.4775 48.4409 46.498 47.9683 47.4004C47.4956 48.3027 46.894 49.1353 46.1636 49.8979C45.562 50.5532 44.8799 51.1763 44.1172 51.7671C43.3652 52.3579 42.6348 52.9326 41.9258 53.4912C41.1738 54.0928 40.4863 54.6997 39.8633 55.312C39.251 55.9243 38.7944 56.5796 38.4937 57.2778H49.0317ZM65.5156 56.3755V61H61.1973V56.3755H50.8687V52.9756L60.4561 38.2964H65.5156V53.0078H68.5449V56.3755H65.5156ZM54.5586 53.0078H61.1973V45.5796C61.1973 44.9995 61.2134 44.3711 61.2456 43.6943C61.2886 43.0176 61.3208 42.5825 61.3423 42.3892C61.2026 42.6899 61.0039 43.0605 60.7461 43.501C60.499 43.9307 60.1929 44.4302 59.8276 44.9995L54.5586 53.0078Z" fill="white"/>
</svg>
