<svg width="155" height="232" viewBox="0 0 155 232" fill="none" xmlns="http://www.w3.org/2000/svg">
        <g>
                 <path d="M142.42 158.593C119.446 177.749 96.3444 192.676 51.3976 162.094 C52.7003 174.105 52.3979 185.594 56.8901 190.006 C97.5089 208.601 125.381 190.863 142.229 158.624Z" fill="#01972B" />
        	<path d="M39.6865 201.502 C76.2653 229.93 144.594 207.433 142.398 158.594 C125.381 190.863 97.5089 208.601 56.2285 189.624 M56.2285 189.624 C48.1039 189.657 45.3219 194.472 39.6865 201.502 " fill="#025D20"/>
                <path d="M51.8799 162.226C52.7003 174.105 52.3979 185.594 56.8901 190.006 C48.1039 189.657 45.3219 194.472 40.8799 202.226C33.3979 192.594 45.8631 160.555 51.8799 162.226Z" fill="#017828"/>
        </g>
        <g>
				
		<path d="M89.3979 10.0935 C147.42 124.594 38.3039 116.708 32.8977 194.094C11.8982 90.5936 102.398 125.094 89.3979 10.0935Z" fill="#FFCA00" />
		<path d="M89.3979 10.0936C76.9205 90.4457 -31.5796 121.446 32.898 193.594C11.8982 90.5936 102.398 125.094 89.3979 10.0935Z" fill="#FFEC02"/>
	</g>
        <g>
		<path d="M111.859 77.2871 C111.859 101.094 89.898 116.9 89.8979 129.094C101.1122 124.452 106.0633 120.66 111.8548 110.796C118.9069 96.539 116.681 89.8298 111.859 77.2871" fill="#05942A" />
		<path d="M89.8979 128.594C91.398 138.593 110.398 146.094 101.884 171.975C120.952 143.338 119.398 123.094 111.6713 110.683C106.0633 120.66 101.1122 124.452 89.6713 128.594" fill="#015C21" />
		<path d="M111.898 77.5935C141.898 109.093 163.398 163.094 101.884 171.975C120.952 143.338 119.398 123.094 111.6713 110.683C118.9069 96.539 116.681 89.8298 111.898 77.5935" fill="#007A25" />	
	</g>
</svg>
