<?xml version="1.0" encoding="UTF-8" standalone="no"?>
<svg
   xmlns:dc="http://purl.org/dc/elements/1.1/"
   xmlns:cc="http://creativecommons.org/ns#"
   xmlns:rdf="http://www.w3.org/1999/02/22-rdf-syntax-ns#"
   xmlns:svg="http://www.w3.org/2000/svg"
   xmlns="http://www.w3.org/2000/svg"
   xmlns:sodipodi="http://sodipodi.sourceforge.net/DTD/sodipodi-0.dtd"
   xmlns:inkscape="http://www.inkscape.org/namespaces/inkscape"
   id="svg8"
   version="1.1"
   viewBox="0 0 23.026276 28.724367"
   height="108.56454"
   width="87.028442"
   sodipodi:docname="pe.svg"
   inkscape:version="0.92.3 (2405546, 2018-03-11)">
  <sodipodi:namedview
     pagecolor="#ffffff"
     bordercolor="#666666"
     borderopacity="1"
     objecttolerance="10"
     gridtolerance="10"
     guidetolerance="10"
     inkscape:pageopacity="0"
     inkscape:pageshadow="2"
     inkscape:window-width="640"
     inkscape:window-height="480"
     id="namedview10"
     showgrid="false"
     fit-margin-top="15"
     fit-margin-bottom="15"
     fit-margin-left="7"
     fit-margin-right="7"
     inkscape:zoom="3.272394"
     inkscape:cx="42.133377"
     inkscape:cy="39.12755"
     inkscape:current-layer="svg8" />
  <defs
     id="defs2" />
  <metadata
     id="metadata5">
    <rdf:RDF>
      <cc:Work
         rdf:about="">
        <dc:format>image/svg+xml</dc:format>
        <dc:type
           rdf:resource="http://purl.org/dc/dcmitype/StillImage" />
        <dc:title></dc:title>
      </cc:Work>
    </rdf:RDF>
  </metadata>
  <rect
     style="opacity:1;fill:none;fill-opacity:1;stroke:#ffffff;stroke-width:0.63552916;stroke-linecap:butt;stroke-linejoin:miter;stroke-miterlimit:4;stroke-dasharray:none;stroke-dashoffset:0;stroke-opacity:1;paint-order:normal"
     id="rect927"
     width="18.686581"
     height="20.151339"
     x="2.169848"
     y="4.2865148"
     ry="3.5508962" />
  <path
     style="fill:#ffffff;fill-opacity:1;stroke-width:0.99999994"
     d="m 15.06492,15.929364 c -0.0798,0.51541 -0.04968,1.69671 -0.04968,2.69844 l 3e-6,6e-5 c 0,2.28693 -0.0493,2.20494 -0.28662,2.35403 -0.228505,0.14351 -0.782776,0.10797 -0.912284,-0.0686 -0.129508,-0.17657 -0.203869,-1.73573 -0.215019,-3.73505 -0.01201,-2.14217 -0.07526,-3.76359 -0.07526,-3.76359 0,0 -0.168206,0.75559 -0.271854,1.04295 -0.161118,0.44667 -0.292528,0.83721 -0.536784,1.00076 -0.263845,0.17667 -0.596458,0.12086 -0.764638,-0.15127 -0.216815,-0.3508 0.574196,-3.45237 1.081212,-4.23942 0.24071,-0.37366 0.639445,-0.58252 1.076539,-0.58252 0.32376,0 0.600406,0.0876 0.663446,-0.0269 0.06304,-0.11447 -0.175099,-0.24876 -0.410425,-0.5087998 -0.501562,-0.76247 -0.02455,-1.84864 0.928005,-1.84764 0.952556,-10e-4 1.429568,1.08517 0.928005,1.84764 -0.235326,0.2600398 -0.473466,0.3943298 -0.410424,0.5087998 0.06304,0.11446 0.339685,0.0269 0.663445,0.0269 0.437095,0 0.83583,0.20886 1.07654,0.58252 0.507015,0.78705 1.298027,3.88862 1.081213,4.23942 -0.16818,0.27213 -0.500793,0.32794 -0.764639,0.15127 -0.244256,-0.16355 -0.375666,-0.55409 -0.536785,-1.00076 -0.103647,-0.28736 -0.271854,-1.04295 -0.271854,-1.04295 0,0 -0.06326,1.62142 -0.07526,3.76359 -0.01114,1.99932 -0.08551,3.55848 -0.215018,3.73505 -0.129509,0.17657 -0.683779,0.21211 -0.912284,0.0686 -0.23732,-0.14909 -0.28662,-0.0671 -0.28662,-2.35403 l 2e-6,-6e-5 c 0,-1.00173 0.03012,-2.18303 -0.04968,-2.69844 -0.03159,-0.20405 -0.164107,-0.19357 -0.226638,-0.19359 -0.06253,2e-5 -0.195052,-0.0105 -0.22664,0.19359 z"
     id="path917"
     inkscape:connector-curvature="0" />
  <path
     style="fill:#ffffff;fill-opacity:1;stroke:none;stroke-width:0.99999994"
     d="m 8.2246564,17.160934 v 3.82426 c 0.288584,0.11858 0.56619,0.11597 0.833849,0.004 v -3.77773 l 1.3456416,-0.0135 c 0,0 0.0337,-0.77615 -0.274465,-1.28028 -0.3081738,-0.50414 -0.2432928,-0.79801 -0.2432928,-0.79801 0.08537,0.17068 0.3389708,0.36463 1.0135428,-0.20658 -0.124609,-0.19433 -0.322424,-1.16567 -0.568074,-2.25101 -0.298715,-1.31981 -0.6552828,-1.9917 -1.1189838,-2.12911 -0.4636998,-0.13736 -0.8503218,-0.0172 -0.9018918,-0.15756 -0.04426,-0.12045 0.07507,-0.14194 0.265707,-0.29484 0.215141,-0.1725598 0.42653,-0.4446398 0.42653,-0.8851198 0,-0.44048 -0.387022,-1.01995 -1.077344,-1.01995 -0.690324,0 -1.077343,0.57947 -1.077343,1.01995 0,0.44048 0.211386,0.71256 0.426529,0.8851198 0.190632,0.1529 0.30997,0.17439 0.265705,0.29484 -0.05157,0.14035 -0.438189,0.0202 -0.901893,0.15756 -0.463701,0.13741 -0.820269,0.8093 -1.118984,2.12911 -0.245649,1.08534 -0.443465,2.05668 -0.568073,2.25101 0.674571,0.57121 0.928171,0.37726 1.013542,0.20658 0,0 0.06488,0.29387 -0.24329,0.79801 -0.308165,0.50413 -0.274465,1.28028 -0.274465,1.28028 l 1.345639,0.0135 v 3.77773 c 0.26766,0.11197 0.545266,0.11458 0.83385,-0.004 v -3.82426 c 0.199189,1.5e-4 0.398375,7e-5 0.597564,0 z"
     id="path925"
     inkscape:connector-curvature="0" />
</svg>
